<svg width="139" height="20" xmlns="http://www.w3.org/2000/svg">
 <defs>
  <linearGradient y2="100%" y1="0%" x2="17.503%" x1="72.195%" id="a">
   <stop stop-color="#33D35E" offset="0%"/>
   <stop stop-color="#2AB6D9" offset="100%"/>
  </linearGradient>
 </defs>
 <g>
  <title>Layer 1</title>
  <path id="svg_2" d="m37.754,15.847c2.852,0 5.152,-1.622 5.952,-4.216l-3.897,0c-0.376,0.665 -1.14,1.066 -2.055,1.066c-1.237,0 -2.065,-0.674 -2.32,-1.978l8.44,0c0.051,-0.352 0.081,-0.694 0.081,-1.037c0,-3.335 -2.537,-5.95 -6.201,-5.95c-3.568,0 -6.175,2.564 -6.175,6.049c0,3.473 2.628,6.066 6.175,6.066zm2.344,-7.297l-4.596,0c0.317,-1.129 1.11,-1.749 2.252,-1.749c1.181,0 2,0.613 2.344,1.75l0,-0.001zm10.946,7.296c1.32,0 2.5,-0.434 3.43,-1.188l0.336,0.804l3.027,0l0,-11.369l-2.919,0l-0.4,0.88c-0.94,-0.775 -2.135,-1.222 -3.474,-1.222c-3.476,0 -5.961,2.505 -5.961,6.026c0,3.533 2.485,6.07 5.961,6.07l0,-0.001zm0.524,-3.467c-1.467,0 -2.545,-1.108 -2.545,-2.593c0,-1.475 1.069,-2.583 2.545,-2.583c1.466,0 2.544,1.108 2.544,2.583c0,1.485 -1.078,2.593 -2.544,2.593zm13.123,3.467c3.02,0 5.025,-1.554 5.025,-3.93c0,-2.883 -2.387,-3.256 -4.183,-3.575c-1.08,-0.193 -1.95,-0.344 -1.95,-0.99c0,-0.527 0.422,-0.838 1.05,-0.838c0.71,0 1.197,0.337 1.197,1.063l3.667,0c-0.044,-2.303 -1.92,-3.843 -4.816,-3.843c-2.912,0 -4.854,1.47 -4.854,3.75c0,2.757 2.337,3.289 4.1,3.574c1.092,0.181 1.952,0.368 1.952,1.024c0,0.587 -0.543,0.88 -1.116,0.88c-0.742,0 -1.32,-0.383 -1.32,-1.214l-3.77,0c0.036,2.463 1.919,4.1 5.018,4.1l0,-0.001zm8.1,3.858c2.936,0 4.344,-1.257 5.877,-4.736l4.764,-10.863l-4.206,0l-2.249,6.263l-2.412,-6.263l-4.255,0l4.698,10.43c-0.53,1.414 -0.983,1.804 -2.48,1.804l-1.078,0l0,3.365l1.341,0zm18.504,-3.858c3.5,0 5.973,-2.515 5.973,-6.048s-2.472,-6.048 -5.973,-6.048a5.332,5.332 0 0 0 -2.825,0.784l0,-4.534l-3.87,0l0,15.474l2.897,0l0.37,-0.844c0.923,0.771 2.102,1.216 3.428,1.216zm-0.523,-3.467c-1.467,0 -2.545,-1.108 -2.545,-2.58c0,-1.486 1.078,-2.594 2.545,-2.594c1.466,0 2.544,1.108 2.544,2.593c0,1.473 -1.087,2.58 -2.544,2.58l0,0.001zm13.598,3.467c1.32,0 2.5,-0.434 3.43,-1.188l0.336,0.804l3.027,0l0,-11.369l-2.918,0l-0.401,0.88c-0.939,-0.775 -2.135,-1.222 -3.474,-1.222c-3.476,0 -5.96,2.505 -5.96,6.026c0,3.533 2.484,6.07 5.96,6.07l0,-0.001zm0.524,-3.467c-1.467,0 -2.545,-1.108 -2.545,-2.593c0,-1.475 1.07,-2.583 2.545,-2.583c1.467,0 2.545,1.108 2.545,2.583c0,1.485 -1.078,2.593 -2.545,2.593zm12.653,3.095l0,-6.071c0,-1.447 0.702,-2.3 1.923,-2.3c0.986,0 1.483,0.657 1.483,1.98l0,6.39l3.915,0l0,-6.93c0,-2.897 -1.733,-4.773 -4.373,-4.773c-1.47,0 -2.733,0.565 -3.58,1.508l-0.537,-1.172l-2.747,0l0,11.369l3.916,0l0,-0.001zm13.748,0l0,-4.808l2.848,4.808l4.616,0l-3.902,-5.95l3.543,-5.419l-4.397,0l-2.708,4.454l0,-8.559l-3.916,0l0,15.474l3.916,0z" fill-rule="nonzero" fill="#ffffff"/>
  <g id="svg_3" fill="url(#a)">
   <path id="svg_4" d="m10.802,0l-10.802,19.704l5.986,0l10.803,-19.704l-5.987,0z"/>
   <path id="svg_5" d="m18.171,0l-10.803,19.704l5.986,0l10.803,-19.704l-5.986,0z" opacity="0.5"/>
   <path id="svg_6" d="m25.539,0l-10.802,19.704l5.986,0l10.802,-19.704l-5.986,0z" opacity="0.15"/>
  </g>
 </g>
</svg>